/* XPM */
static char *_57fa937dcdb4a3c8a99cd4a81ad6bb7[] = {
/* columns rows colors chars-per-pixel */
"16 16 202 2 ",
"   c black",
".  c #000100",
"X  c #000E00",
"o  c #000F0F",
"O  c #001800",
"+  c #001A00",
"@  c #02170E",
"#  c #031819",
"$  c #071A1B",
"%  c #021D1C",
"&  c #081B1A",
"*  c #002300",
"=  c #002500",
"-  c #002A00",
";  c #062E00",
":  c #0F2509",
">  c #032D0E",
",  c #033200",
"<  c #003700",
"1  c #043603",
"2  c #053A06",
"3  c #023F08",
"4  c #0D241B",
"5  c #142213",
"6  c #142214",
"7  c #142414",
"8  c #172C16",
"9  c #0F3517",
"0  c #053C13",
"q  c #0A391A",
"w  c #002823",
"e  c #002B27",
"r  c #1E2122",
"t  c #0A3425",
"y  c #00352B",
"u  c #00392F",
"i  c #003D2D",
"p  c #093828",
"a  c #1E3621",
"s  c #1B3C25",
"d  c #004503",
"f  c #00430A",
"g  c #00490B",
"h  c #004A0B",
"j  c #1C4800",
"k  c #00540D",
"l  c #00540E",
"z  c #004011",
"x  c #054E10",
"c  c #005F13",
"v  c #204C00",
"b  c #214D02",
"n  c #235204",
"m  c #245605",
"M  c #265A08",
"N  c #006C19",
"B  c #056F1D",
"V  c #086A1E",
"C  c #007918",
"Z  c #2C6008",
"A  c #2A6409",
"S  c #2D7A14",
"D  c #05432A",
"F  c #00452F",
"G  c #195627",
"H  c #1D5727",
"J  c #004D3B",
"K  c #005137",
"L  c #035436",
"P  c #035C35",
"I  c #045C35",
"U  c #00503A",
"Y  c #005A3F",
"T  c #057320",
"R  c #067822",
"E  c #077D23",
"W  c #026038",
"Q  c #026138",
"!  c #026638",
"~  c #00653B",
"^  c #01663B",
"/  c #007633",
"(  c #237B3D",
")  c #005940",
"_  c #006544",
"`  c #006846",
"'  c #006D44",
"]  c #00754B",
"[  c #007C4A",
"{  c #007A4D",
"}  c #378015",
"|  c #348218",
" . c #368619",
".. c #368C1A",
"X. c #36911B",
"o. c #3B9619",
"O. c #319B1D",
"+. c #088125",
"@. c #0B8825",
"#. c #0D8E2A",
"$. c #07823B",
"%. c #198E3E",
"&. c #7DAA24",
"*. c #00824B",
"=. c #03864A",
"-. c #00854E",
";. c #1F8F4C",
":. c #129B42",
">. c #1C944B",
",. c #008451",
"<. c #008B54",
"1. c #009352",
"2. c #009556",
"3. c #009358",
"4. c #00A84F",
"5. c #00A651",
"6. c #00A751",
"7. c #518560",
"8. c #539A75",
"9. c #539F76",
"0. c #6E927D",
"q. c #57B06E",
"w. c #52A578",
"e. c #52AE7B",
"r. c #ABB91F",
"t. c #8ABF2A",
"y. c #B3BF21",
"u. c #B2D01A",
"i. c #B7C921",
"p. c #CCD919",
"a. c #C2CD24",
"s. c #F3F15D",
"d. c #E6EC66",
"f. c #E2E973",
"g. c #E5EA73",
"h. c #E6EC72",
"j. c #E8EC71",
"k. c #EDEF77",
"l. c #E2EB7A",
"z. c #7CA893",
"x. c #7BAB95",
"c. c #7CB69A",
"v. c #73C28C",
"b. c #849985",
"n. c #99A59A",
"m. c #80B49A",
"M. c #97BDA8",
"N. c #9FBCAE",
"B. c #A2B7AC",
"V. c #A2BBAF",
"C. c #BDB5BF",
"Z. c #A0C0B1",
"A. c #AECAB7",
"S. c #D6FD89",
"D. c #F3FC81",
"F. c #FFFF83",
"G. c #E6FA97",
"H. c #EAF996",
"J. c #E0FA98",
"K. c #E3FA98",
"L. c #FFFF93",
"P. c #F2FE9F",
"I. c #FFFD99",
"U. c #FFFF98",
"Y. c #FFFF9D",
"T. c #FFFF9F",
"R. c #E3FFA1",
"E. c #EFFFA6",
"W. c #F2FFA4",
"Q. c #FFFFA2",
"!. c #FFFFA7",
"~. c #F3FFA8",
"^. c #FFFFA9",
"/. c #F3FFB0",
"(. c #F9FFB1",
"). c #FFFFB3",
"_. c #F7FFBB",
"`. c #FFFFBA",
"'. c #BCC5C1",
"]. c #C0C2C0",
"[. c #C1C4C1",
"{. c #C1C7C3",
"}. c #C1CAC5",
"|. c #CDC6D1",
" X c #CCD4D2",
".X c #FFFFC4",
"XX c #FFFFC6",
"oX c #E5E9DF",
"OX c #FFFFD5",
"+X c #E8E7E1",
"@X c #E6E8E2",
"#X c #E6EDE5",
"$X c #E9E9E3",
"%X c #E9ECE3",
"&X c #EDEBE4",
"*X c #EDEBE6",
"=X c #EDEDE5",
"-X c #EEEDE5",
";X c #EBEBEA",
":X c #F3F1EA",
">X c gray100",
",X c None",
/* pixels */
"5.6.,X,X1.,X,X*.[ ,X,X' ,X,X^ W ",
"5.4.2.-.#.@.+.E R T B V K Y ^ I ",
",X3.%.u.s.k.j.h.g.f.l.d.y.H J ,X",
",X=.p.).>X>X>X>X>X>X>X>XXXi.D ,X",
"<.O.F.>Xv.q.e.w.9.8.7.0.>XU.A u ",
",.o.^.>X:.C N c k h = 0 >X`.Z y ",
",XX.Y.>X>.$.-X:X-X&X@X;X>XW.M ,X",
"{ ..Y.>X;./ c.m.x.z.b.n.>X~.m e ",
"]  .Q.>X( k d < - * O 9 >X(.n w ",
",X| U.>X#X@X%X%X&X+Xq s >X/.b ,X",
"` } !.>XA.M.Z.V.V.B.> a >X_.b % ",
"_ S L.>Xz X + X . . . r >XE.j # ",
",XL a.XX X'.}.[.[.].C.|.OXt.@ ,X",
",X) G r.D.P.H.G.J.J.R.S.&.: $ ,X",
"^ ^ U i x h f 3 2 1 , ; o & 8 5 ",
"W P ,X,XF ,X,Xp t ,X,X4 ,X,X6 7 "
};
