/* XPM */
static char *_81e48fa0f774c479342f83b66289420[] = {
/* columns rows colors chars-per-pixel */
"32 32 256 2 ",
"   c black",
".  c #001300",
"X  c #001D02",
"o  c #000914",
"O  c #001516",
"+  c #00121A",
"@  c #001A1E",
"#  c #002202",
"$  c #002C03",
"%  c #002509",
"&  c #002C0B",
"*  c #00340B",
"=  c #003B0C",
"-  c #003200",
";  c #0D2A1C",
":  c #142514",
">  c #152C19",
",  c #14281A",
"<  c #003816",
"1  c #16311C",
"2  c #19341D",
"3  c #001F21",
"4  c #002323",
"5  c #002C29",
"6  c #052C24",
"7  c #132F20",
"8  c #093423",
"9  c #093927",
"0  c #00332D",
"q  c #033C2B",
"w  c #073F20",
"e  c #183720",
"r  c #133C23",
"t  c #1A3C25",
"y  c #003D35",
"u  c #2F342F",
"i  c #004907",
"p  c #004313",
"a  c #004B15",
"s  c #00441C",
"d  c #004C1C",
"f  c #00551C",
"g  c #005B1D",
"h  c #005417",
"j  c #3E6D14",
"k  c #004B23",
"l  c #00442D",
"z  c #0E462A",
"x  c #0D4C2D",
"c  c #024927",
"v  c #144126",
"b  c #154529",
"n  c #124A2B",
"m  c #1F4B2E",
"M  c #005225",
"N  c #00532A",
"B  c #0C502F",
"V  c #005C2B",
"C  c #085D23",
"Z  c #004F31",
"A  c #0C4E36",
"S  c #004339",
"D  c #004A38",
"F  c #1D4F30",
"G  c #0C5430",
"H  c #035C35",
"J  c #00523D",
"K  c #025D3C",
"L  c #005530",
"P  c #1A5735",
"I  c #21472C",
"U  c #3D5F27",
"Y  c #225335",
"T  c #36593D",
"R  c #384E29",
"E  c #006422",
"W  c #006C25",
"Q  c #00652D",
"!  c #00742A",
"~  c #007D2D",
"^  c #007426",
"/  c #016136",
"(  c #006C31",
")  c #016339",
"_  c #006B3C",
"`  c #0A6F3E",
"'  c #1D643B",
"]  c #00723F",
"[  c #037838",
"{  c #416E17",
"}  c #457318",
"|  c #4A7B1B",
" . c #447418",
".. c #426C3C",
"X. c #5E7730",
"o. c #4A7031",
"O. c #035B41",
"+. c #006446",
"@. c #006D41",
"#. c #006B49",
"$. c #086641",
"%. c #1D6E41",
"&. c #007542",
"*. c #097542",
"=. c #007B44",
"-. c #097B43",
";. c #00724C",
":. c #007B4B",
">. c #007B51",
",. c #357047",
"<. c #396846",
"1. c #4A584B",
"2. c #5B5C5B",
"3. c #4C614E",
"4. c #446248",
"5. c #497740",
"6. c #5B7D5F",
"7. c #457A56",
"8. c #5F7F69",
"9. c #606C61",
"0. c #607363",
"q. c #607A66",
"w. c #008510",
"e. c #00862E",
"r. c #008432",
"t. c #008B31",
"y. c #009134",
"u. c #4D801B",
"i. c #548521",
"p. c #59942A",
"a. c #5B9C2B",
"s. c #569328",
"d. c #44853D",
"f. c #60843D",
"g. c #778D3E",
"h. c #5BA32C",
"j. c #74A025",
"k. c #62AB31",
"l. c #008446",
"z. c #098246",
"x. c #008449",
"c. c #008B4A",
"v. c #0A8C4A",
"b. c #058845",
"n. c #00944D",
"m. c #009C4E",
"M. c #018353",
"N. c #038A51",
"B. c #009A52",
"V. c #268D51",
"C. c #3C9654",
"Z. c #33854A",
"A. c #00A551",
"S. c #3BAB59",
"D. c #588440",
"F. c #438157",
"G. c #41A548",
"H. c #51A74C",
"J. c #77B047",
"K. c #5F826A",
"L. c #5C9068",
"P. c #60866C",
"I. c #618C70",
"U. c #4FA36C",
"Y. c #4FAC6F",
"T. c #4EB472",
"R. c #83BE15",
"E. c #80933D",
"W. c #9CB128",
"Q. c #A1B826",
"!. c #ACCC18",
"~. c #AFD01D",
"^. c #BFD71A",
"/. c #8EC322",
"(. c #8DCA20",
"). c #94C520",
"_. c #9AC721",
"`. c #9CC821",
"'. c #A4CA22",
"]. c #ACCD20",
"[. c #A8EB24",
"{. c #B1F821",
"}. c #C4D20E",
"|. c #C7D61A",
" X c #CDD919",
".X c #C9D719",
"XX c #D4DC16",
"oX c #DADE14",
"OX c #D0D918",
"+X c #DAE106",
"@X c #DDE113",
"#X c #D5ED1C",
"$X c #FFFD01",
"%X c #FFF702",
"&X c #E5E810",
"*X c #ECF513",
"=X c #F6FB11",
"-X c #FFFD29",
";X c #E8F537",
":X c #FFFA36",
">X c #FEF73D",
",X c #FFF93A",
"<X c #B5E94F",
"1X c #B3DB6A",
"2X c #C3F152",
"3X c #CCF153",
"4X c #C5F158",
"5X c #D3F251",
"6X c #DCF451",
"7X c #D7E954",
"8X c #E5F345",
"9X c #FCF449",
"0X c #E2F552",
"qX c #D3E661",
"wX c #898B89",
"eX c #8CA691",
"rX c #92AD99",
"tX c #92A897",
"yX c #84B292",
"uX c #92B49D",
"iX c #92B89F",
"pX c #9DAFA1",
"aX c #92BBA1",
"sX c #A7BEAC",
"dX c #A7C3AE",
"fX c #A3D6AE",
"gX c #AACBB3",
"hX c #AAC5B1",
"jX c #B5CDB9",
"kX c #BCC4BD",
"lX c #AFDABA",
"zX c #B2D4B9",
"xX c #FFFC89",
"cX c #EEF999",
"vX c #F5F895",
"bX c #DCF5A1",
"nX c #FFFEBB",
"mX c #FFFBB9",
"MX c #CAD1CB",
"NX c #D1D9CF",
"BX c #D2DCD1",
"VX c #DBDDDD",
"CX c #C1E2C6",
"ZX c #D6E2D6",
"AX c #EEF9C4",
"SX c #F4FFC7",
"DX c #FAFFC6",
"FX c #F2FFC9",
"GX c #FDFFC8",
"HX c #E6EFD2",
"JX c #EBF2D0",
"KX c #F9FAED",
"LX c #F5F9F5",
"PX c #FFFFFF",
"IX c #F8FAF8",
"UX c None",
/* pixels */
"UXA.A.A.UXUXUXUXm.m.UXUXUXUXUXc.l.UXUXUXUXUX=.&.UXUXUXUX_ ) ) UX",
"A.A.A.A.A.UXUXm.n.n.n.c.UXUXc.x.l.l.UXUXUX&.&.] ] UXUX_ ) ) ) H ",
"A.A.A.A.A.m.m.m.n.N.c.x.x.x.:.=.:.&.&.&.@.@.@._ _ _ ) ) ) ) ) H ",
"A.A.A.A.m.m.N.>.N.v.v.b.z.z.z.-.-.*.*.*.` ` ` $.O.J _ ) K H H H ",
"UXA.m.A.m.>.C.'.+X&XoX@XoXoXXXXXXXXX X X.X|.|.}.Q.5.S K / H H UX",
"UXUXm.m.M.J.$X-XxXnXnXnXnXnXnXnXnXnXnXnXnXDXnXvX;X=XE.l H H UXUX",
"UXUXm.M.H.$X9XKXPXPXPXPXPXPXPXPXPXPXPXPXPXPXPXPXLXqX=Xf.y H UXUX",
"UXm.n.N.@X:XPXPXPXPXPXPXPXPXPXPXPXPXPXPXPXPXPXPXPXPX7X|.A Z G UX",
"m.m.M.G.%XmXPXPXCXfXlXlXzXzXzXzXzXjXjXjXjXjXhXMXPXPXJX#Xo.q G B ",
"n.n.M.k.-XPXPXPXS.w.y.e.e.~ ^ ^ W E E g f f - <.PXPXPX8Xi.y B x ",
"n.n.>.h.:XPXPXPXT.y.m.n.n.c.c.l.:.=.&.&._ @.a 7.PXPXPX0Xu.0 B n ",
"UXn.>.h.:XPXPXPXT.t.B.c.^ W W E g g f d a p # T PXPXPX6X| 0 n UX",
"UXUX:.h.:XPXPXPXY.r.b.V.gXgXhXhXhXdXdXsXsXsXpXkXPXPXPX6X| 0 UXUX",
"UXUX;.h.:XPXPXPXY.r.[ C.PXPXPXPXPXPXPXPXPXPXPXPXPXPXPX6X| 5 n UX",
"UXc.;.a.,XPXPXPXU.~ [ V.ZXZXZXBXZXBXBXBXNXNXMXVXPXPXPX5X} 5 b UX",
"c.l.;.a.,XPXPXPXU.! N.=.( ( Q V V M k k k s # 1.PXPXPX5X} 5 b v ",
"l.l.#.a.:XPXPXPXU.^ x.=.] ] _ ) / V H L Z c $ 4.PXPXPX5X} 5 r r ",
"UXl.+.a.>XPXPXPXZ.i g h h a a p = = * $ x P % 3.PXPXPX3X} 4 v UX",
"UXUX+.a.9XPXPXPXgXyXaXaXuXuXuXrXrXtXtXtXY 9 % 3.PXPXPX3X} 3 t UX",
"UXUX+.s.,XPXPXPXPXPXPXPXPXPXPXPXPXPXPXPXT & % 3.PXPXPX3X{ 4 UXUX",
"UX=.+.s.>XIXPXPXIXIXIXIXLXIXIXLXLXIXIXIXT & % 1.PXPXPX2Xj @ e UX",
"=.=.O.s.9XPXPXPXL.C %.%.' ' ' Y Y F m I r t . 1.PXPXPX4Xj @ e e ",
"&.&.O.p.:XPXPXPXF.p V N N k k s s < < < r t . 1.PXPXPX2X} + 2 1 ",
"&.&.K d.&XAXPXPX,.- a < < * * $ % # # X . .   u PXPXHX[.U + 2 > ",
"UX] _ O..X8XPXPXeX6.I.P.P.K.8.q.q.0.0.0.9.9.2.wXPXPX<X/., ; > UX",
"UXUX_ J D.=XqXKXPXPXPXPXPXPXPXPXPXPXPXPXPXPXPXPXIX1X{.o.o 2 UXUX",
"UXUX_ _ S g.*X;XvXDXDXDXDXDXDXDXSXSXSXSXFXFXFXbX<X[.X.o > > UXUX",
"UX_ ) ) / y ..W.!.~.].'.'.'.`.`._._.).)./././.R.j.R o > > > : UX",
"$.) ) / H / D y A G B x x z z z v r v r r 8 e 1 + O 1 > > : : : ",
"_ ) ) / H H H L Z Z l l l q q 9 9 9 8 8 8 ; ; ; > 1 > > : : : : ",
") / H H H UXUXG B B x n UXUXb v v r UXUXe e 2 2 > UXUX: : : : : ",
"UXK H H UXUXUXUXB x UXUXUXUXUXb r UXUXUXUXUX1 > UXUXUXUX: : : UX"
};
