/* XPM */
static char *cf1dd9eefe574fa2d2efd585d5ff35da[] = {
/* columns rows colors chars-per-pixel */
"64 64 256 2 ",
"   c #000300",
".  c #000C00",
"X  c #001300",
"o  c #001C01",
"O  c #000814",
"+  c #031919",
"@  c #002203",
"#  c #002A07",
"$  c #00380E",
"%  c #07291C",
"&  c #142514",
"*  c #132917",
"=  c #152D1A",
"-  c #003512",
";  c #003B14",
":  c #073A1C",
">  c #16321D",
",  c #19351D",
"<  c #1A381E",
"1  c #022C23",
"2  c #042920",
"3  c #0A3423",
"4  c #0E3C25",
"5  c #00352A",
"6  c #023C2C",
"7  c #033527",
"8  c #143620",
"9  c #143C24",
"0  c #1B3921",
"q  c #003A35",
"w  c #004315",
"e  c #004C15",
"r  c #00441C",
"t  c #004C1B",
"y  c #00541B",
"u  c #005C1D",
"i  c #005117",
"p  c #004C08",
"a  c #00631E",
"s  c #007F05",
"d  c #004C21",
"f  c #00432C",
"g  c #0C442A",
"h  c #044B2D",
"j  c #0D4C2D",
"k  c #0E4226",
"l  c #144127",
"z  c #134529",
"x  c #11492C",
"c  c #194329",
"v  c #005424",
"b  c #005B24",
"n  c #0B512F",
"m  c #01562C",
"M  c #014B32",
"N  c #034936",
"B  c #045632",
"V  c #0A5431",
"C  c #035C35",
"Z  c #00543D",
"A  c #055C36",
"S  c #175735",
"D  c #165C26",
"F  c #294D31",
"G  c #275A38",
"H  c #2F4722",
"J  c #006323",
"K  c #006C23",
"L  c #00632B",
"P  c #006B2D",
"I  c #007325",
"U  c #007928",
"Y  c #026136",
"T  c #016439",
"R  c #006B3D",
"E  c #0B623D",
"W  c #00713F",
"Q  c #007636",
"!  c #1B6D2C",
"~  c #27643E",
"^  c #376E38",
"/  c #51752F",
"(  c #005C41",
")  c #006344",
"_  c #016C42",
"`  c #006E49",
"'  c #007441",
"]  c #007B44",
"[  c #00734C",
"{  c #017C4B",
"}  c #007C54",
"|  c #286B42",
" . c #287747",
".. c #54745D",
"X. c #506A55",
"o. c #7C7F7C",
"O. c #00842A",
"+. c #008C2C",
"@. c #00922E",
"#. c #009732",
"$. c #7EBA0E",
"%. c #7FB915",
"&. c #578B39",
"*. c #638834",
"=. c #749539",
"-. c #6F9B36",
";. c #7AA638",
":. c #008346",
">. c #018549",
",. c #008B4A",
"<. c #058A49",
"1. c #00944C",
"2. c #009B4E",
"3. c #028552",
"4. c #009D50",
"5. c #009550",
"6. c #1D9354",
"7. c #298B4D",
"8. c #00A551",
"9. c #00A855",
"0. c #3B9360",
"q. c #53A746",
"w. c #578B6D",
"e. c #579873",
"r. c #4D9D6B",
"t. c #73947B",
"y. c #57A376",
"u. c #58A77A",
"i. c #5BB56E",
"p. c #69AE61",
"a. c #8AB53C",
"s. c #85B83D",
"d. c #94B93C",
"f. c #9CBC3D",
"g. c #92B73B",
"h. c #85AA39",
"j. c #A2BE3C",
"k. c #85AE2B",
"l. c #96CE18",
"z. c #9DD117",
"x. c #88C11C",
"c. c #B3CE0C",
"v. c #A4D217",
"b. c #ACD81A",
"n. c #B3D515",
"m. c #B4DD1E",
"M. c #BAD717",
"N. c #B0CC10",
"B. c #BDE11E",
"V. c #94C833",
"C. c #90C82D",
"Z. c #A3DA21",
"A. c #A7DC27",
"S. c #A5C33D",
"D. c #A9CB3B",
"F. c #A7C93D",
"G. c #ACD43B",
"H. c #B6D43C",
"J. c #B4C933",
"K. c #C2DA1E",
"L. c #DBE20D",
"P. c #C2E21D",
"I. c #DAE319",
"U. c #E7E509",
"Y. c #F6EB06",
"T. c #E8E517",
"R. c #FFF513",
"E. c #FCF219",
"W. c #F7F21A",
"Q. c #F8F214",
"!. c #C5D92C",
"~. c #C8DA3B",
"^. c #D3DE3B",
"/. c #DCE436",
"(. c #D9E138",
"). c #D5E638",
"_. c #D4EB32",
"`. c #EAEA2B",
"'. c #FBFA29",
"]. c #EAF43B",
"[. c #FDFD3B",
"{. c #FEF833",
"}. c #EDEB34",
"|. c #9DCB43",
" X c #96C640",
".X c #A4CD40",
"XX c #A9CF41",
"oX c #A8D243",
"OX c #B5D341",
"+X c #A5D052",
"@X c #B5ED48",
"#X c #BCF44D",
"$X c #ACE345",
"%X c #ADD462",
"&X c #BBD96C",
"*X c #B7D76D",
"=X c #B9DA77",
"-X c #C8DC50",
";X c #CEE242",
":X c #DBE34F",
">X c #D4E24C",
",X c #D4E156",
"<X c #C9F550",
"1X c #E3E64C",
"2X c #E7E948",
"3X c #ECFB43",
"4X c #EFF24B",
"5X c #C3DC6C",
"6X c #C8DE6D",
"7X c #F1F078",
"8X c #D2E377",
"9X c #799580",
"0X c #78AA8B",
"qX c #6BBC89",
"wX c #6FB78A",
"eX c #72B28A",
"rX c #66C289",
"tX c #878E86",
"yX c #889A8C",
"uX c #889589",
"iX c #8AA994",
"pX c #8CB79B",
"aX c #96B9A1",
"sX c #B9BDB9",
"dX c #B2B6B2",
"fX c #ADBAB2",
"gX c #94C8A7",
"hX c #93D2A9",
"jX c #B9C4BB",
"kX c #B7CBBD",
"lX c #B9C8BC",
"zX c #B7D0BF",
"xX c #AFC3B8",
"cX c #81CB99",
"vX c #DAE786",
"bX c #CCE39A",
"nX c #D3E69F",
"mX c #DAE99E",
"MX c #C5E08F",
"NX c #E6ED96",
"BX c #EAEE95",
"VX c #E4EC99",
"CX c #EDF095",
"ZX c #F1F194",
"AX c #CFE5A0",
"SX c #F2F4B3",
"DX c #B9D3C2",
"FX c #BCCEC1",
"GX c #B7E1C3",
"HX c #DBDEDC",
"JX c #F4F7D1",
"KX c #F6FAE7",
"LX c #FFFFFF",
"PX c #F9FEF9",
"IX c #DEE7E0",
"UX c None",
/* pixels */
"UXUX8.8.8.8.8.UXUXUXUXUXUXUXUXUXUX2.2.2.UXUXUXUXUXUXUXUXUXUX,.>.>.>.UXUXUXUXUXUXUXUXUXUX] ' W UXUXUXUXUXUXUXUXUXUXR T T T T UXUX",
"UX8.8.8.8.8.8.8.UXUXUXUXUXUXUX4.2.2.1.1.1.1.UXUXUXUXUXUXUX>.>.>.:.:.>.UXUXUXUXUXUXUX] ' ' ' ] W W UXUXUXUXUXUXUXR T R T T T T UX",
"9.8.8.8.8.8.8.8.9.UXUXUXUXUXUX4.2.1.1.1.1.1.UXUXUXUXUXUX<.>.<.:.>.:.:.] UXUXUXUXUXUX] ] ' ' W W W UXUXUXUXUXUXT T T T T T Y Y C ",
"8.9.8.8.8.8.8.8.8.8.UXUXUX2.2.2.2.1.1.1.1.1.,.,.UXUXUX,.<.>.:.:.:.:.] :.] UXUXUX] ] W W ' W ' W W R W UXUXUXR R T T T T Y T Y C ",
"8.8.8.9.8.8.8.2.8.4.4.4.2.2.1.2.1.1.1.1.1.,.,.,.,.,.<.>.>.>.:.:.:.] >.] ] ] ] ] ] W W ] ' W W W R R R R T R R T T T T Y Y A A A ",
"8.8.9.8.8.8.8.8.2.4.4.2.2.2.2.1.1.1.1.1.1.,.,.,.,.,.>.<.>.>.:.:.:.:.] ] ] ] ] Q ] W ' W ' W W R R W R R R T T T T Y Y T Y A C C ",
"8.8.8.8.8.8.8.8.2.4.2.2.2.1.1.2.1.,.<.3.>.>.>.>.:.{ >.] ] { { ] ' { ' ' ' _ ' ' _ _ _ R R R ) R W R R R T R T T T Y T C C C C A ",
"UX9.8.8.8.8.8.2.8.2.2.2.2.1.,.} 3.3.<.3.<.<.:.:.{ :.] { :.] ] ] ' ' { ' ' ' _ _ _ _ R R _ E ( ( N ( R T T T T Y Y Y Y C C A A UX",
"UXUX8.8.8.4.4.2.2.2.2.2.,.} 7.s.J./././././././.(.(.(.(.(.(.(.(./.^.^.(.^.^.~.^.^.~.^.~.~.~.~.J.h.^ N Z R T T Y A A A C C A UXUX",
"UXUXUX8.8.4.2.2.2.2.4.3.7.G.'.{.'.R.Y.Y.Y.Y.Y.Y.Y.Y.Y.Y.U.Y.U.U.Y.T.U.U.U.U.T.L.L.L.L.L.L.L.I.`.[.}.J.^ q T T T A Y A C C UXUXUX",
"UXUXUX4.2.2.2.2.1.2.} q.'.{.'.U.T.4XZXZXZXZXZXZXCXCXCXCXZXCXBXCXBXBXBXBXBXNXNXNXNXNXNXNXVXvX,X!.c.~.4X{.=.q C Y Y A A C A UXUXUX",
"UXUXUXUX4.2.2.1.2.} ;.'.{.L.U.7XJXPXPXLXPXLXLXLXLXLXLXLXLXLXLXLXLXLXLXLXLXLXLXLXLXLXLXLXLXLXPXKXvXK.c.;X[.;.q Y Y A C B B UXUXUX",
"UXUXUX2.2.2.2.2.} q.'.}.U.`.JXLXLXLXLXLXLXLXLXLXLXLXLXLXLXLXLXLXLXLXLXLXLXLXLXLXLXLXLXLXLXLXLXLXLXKX;Xc.H.[.*.q Y A V A V UXUXUX",
"UXUXUX2.2.2.1.1.3.'.{.U.}.PXLXLXLXLXLXLXLXLXLXLXLXLXLXLXLXLXLXLXLXLXLXLXLXLXLXLXLXLXLXLXLXLXLXLXLXLXLX-Xc.;X].G h A B A V UXUXUX",
"UXUX2.2.2.1.2.} s.{.T.T.PXLXLXLXLXLXLXLXLXLXLXLXLXLXLXLXLXLXLXLXLXLXLXLXLXLXLXLXLXLXLXLXLXLXLXLXLXLXLXLX~.N.3Xd.q B B V V V UXUX",
"UX2.2.2.5.5.1.<.`.{.U.JXLXLXLXLXLXLXLXLXLXLXLXLXLXLXLXLXLXLXLXLXLXLXLXLXLXLXLXLXLXLXLXLXLXLXLXLXLXLXLXLXKXn.H.).G f V V V V V UX",
"4.2.2.2.1.2.3.q.{.U.4XLXLXLXLXLXLXLXLXLXLXLXLXLXLXLXLXLXLXLXLXLXLXLXLXLXLXLXLXLXLXLXLXLXLXLXLXLXLXLXLXLXLX8XN.3X&.5 V V V V j n ",
"2.2.2.1.1.1.3.a.'.U.SXLXLXLXLXLXGXi.rXrXrXrXqXqXqXwXqXwXwXwXwXeXeXeXeX0XeX0X0X0X0X0X0X0X0X0Xt.FXLXLXLXLXLXJXv./.h.q V V V j n j ",
"2.2.1.1.1.1.{ D.E.`.KXLXLXLXLXLXcXs #.@.@.+.+.O.O.O.U U I I I K K a a a u u u u y i i e w e @ t.LXLXLXLXLXLXOXP.j.6 B n n n j j ",
"5.5.1.1.1.1.{ D.R.2XLXLXLXLXLXLXhX#.9.9.8.4.4.2.2.5.1.,.,.,.,.>.>.:.:.{ ] ] ' ' ' ' _ R R R w iXLXLXLXLXLXLX6XP.S.6 h V j n j j ",
"1.1.1.1.1.1.{ D.R.2XLXLXLXLXLXLXhX@.8.8.2.2.5.1.5.,.,.,.,.>.>.>.] ] ] ' ' ' ' ' R R T R T R $ iXLXLXLXLXLXLX6XP.|.f h j j j j j ",
"UX1.1.1.,.,.} D.R.2XLXLXLXLXLXLXhX+.4.4.2.5.1.1.5.,.,.,.>.:.:.] :.] ] ' ' ' W R R R T T T T $ iXLXLXLXLXLXLX6XP.j.6 h j j j x UX",
"UXUX1.,.1.,.[ D.R.2XLXLXLXLXLXLXhX+.4.2.2.1.1.1.,.,.,.>.>.>.] :.] ] ] ' ' ' _ _ _ R R T Y T $ iXLXLXLXLXLXLX5XP.f.5 h j j j UXUX",
"UXUXUX,.,.,.[ D.R.1XLXLXLXLXLXLXhXO.4.1.1.1.1.>.I I I K K K J J J u b u y y i e e e e w w w X t.LXLXLXLXLXLX5XP.j.6 h j x UXUXUX",
"UXUXUX,.,.,.` D.R.1XLXLXLXLXLXLXhXO.2.1.1.,.:.6.u.u.u.y.y.y.e.y.e.e.e.e.e.e.w.w.w.w.w.w.w.w.X.fXLXLXLXLXLXLX5XB.f.q h x g UXUXUX",
"UXUXUXUX,.,.[ D.R.1XLXLXLXLXLXLXhXO.1.1.1.1.I y.LXLXLXLXLXLXLXLXLXLXLXLXLXLXLXLXLXLXLXLXLXLXLXLXLXLXLXLXLXLX5XB.f.5 h x x UXUXUX",
"UXUXUX,.,.>.` D.R.1XLXLXLXLXLXLXgXO.1.1.,.,.I r.LXLXLXLXLXLXLXLXLXLXLXLXLXLXLXLXLXLXLXLXLXLXLXLXLXLXLXLXLXLX5XB.f.5 g x x UXUXUX",
"UXUXUX,.>.,.` S.R.1XLXLXLXLXLXLXgXO.1.,.,.,.I r.LXLXLXLXLXLXLXLXLXLXLXLXLXLXLXLXLXLXLXLXLXLXLXLXLXLXLXLXLXLX&XB.f.5 g g x UXUXUX",
"UXUX:.:.,.:.[ D.R.1XLXLXLXLXLXLXgXU ,.,.,.,.I y.LXLXLXLXLXLXLXLXLXLXLXLXLXLXLXLXLXLXLXLXLXLXLXLXLXLXLXLXLXLX5XB.f.5 g x z z UXUX",
"UX,.,.,.:.:.[ S.R.:XLXLXLXLXLXLXgXU ,.,.,.>.Q 0.DXDXDXzXzXzXzXzXzXkXzXzXkXkXlXkXkXjXjXkXjXlXdXHXLXLXLXLXLXLX&Xm.d.5 g z l z l UX",
",.>.>.:.:.:.' S.R.1XLXLXLXLXLXLXgXI ,.,.:.:.>.Q P J L J b u b y y t t t e r w w ; ; ; ; $ -   t.LXLXLXLXLXLX&Xm.d.1 k z x l z 9 ",
">.>.>.:.:.:.` S.E.:XLXLXLXLXLXLXgXI ,.>.:.:.] ] Q ] ' W W W R R T T T Y C C C B B B m m h h @ yXLXLXLXLXLXLX&Xm.d.1 k l 9 l l l ",
">.>.>.>.:.:.` S.E.:XLXLXLXLXLXLXgXI >.>.:.:.] ] ] ' ' ' R R R R R T T Y A A A B V V n n j j @ yXLXLXLXLXLXLX&Xm.d.1 k l z 9 z 9 ",
">.:.:.:.] ] ) S.E.:XLXLXLXLXLXLXgXK >.{ ] ] ] ' ' W W W R R R T T Y Y C A A B V n n n j j x @ yXLXLXLXLXLXLX&Xm.d.1 4 z 9 l 9 9 ",
"UX:.:.] :.] ` S.E.:XLXLXLXLXLXLXgXa >.:.] ] ] ] ' ' ' _ _ R R T T T Y A A A V V n n j x x x o yXLXLXLXLXLXLX&Xm.d.1 k 9 z 9 9 UX",
"UXUX:.] :.] ) S.E.:XLXLXLXLXLXLXcXp Q P P P L L L L m b b v v v d d r d r r r ; h n j g x x o yXLXLXLXLXLXLX&XZ.g.1 4 z 9 9 UXUX",
"UXUXUX] ] ] ) j.E.:XLXLXLXLXLXLXgX! 7. . .7. . . . . .| | | | | | G | G ~ G G G S g x x z z o uXLXLXLXLXLXLX&Xb.g.1 9 9 9 UXUXUX",
"UXUXUX] ] ] ) S.E.>XLXLXLXLXLXLXLXLXLXLXLXLXLXLXLXLXLXLXLXLXLXLXLXLXLXLXLXLXLXLX..# j x z c X yXLXLXLXLXLXLX&Xm.a.1 4 9 9 UXUXUX",
"UXUXUXUX] ' ( j.W.:XLXLXLXLXLXLXLXLXLXLXLXLXLXLXLXLXLXLXLXLXLXLXLXLXLXLXLXLXLXLX..# x z l z X yXLXLXLXLXLXLX&XZ.a.2 4 9 9 UXUXUX",
"UXUXUX] ] ] ( f.W.>XLXLXLXLXLXLXLXLXLXLXLXLXLXLXLXLXLXLXLXLXLXLXLXLXLXLXLXLXLXLX..# c l 9 c X uXLXLXLXLXLXLX*XZ.a.2 9 9 9 UXUXUX",
"UXUXUX] ' ] ) j.W.,XLXLXLXLXLXLXLXLXLXLXLXLXLXLXLXLXLXLXLXLXLXLXLXLXLXLXLXLXLXLX..@ c l 9 l X uXLXLXLXLXLXLX*XZ.a.2 8 9 0 UXUXUX",
"UXUX] ] ' Q ( f.W.>XLXLXLXLXLXLXPXPXPXLXLXLXPXPXLXLXPXPXPXLXLXLXPXLXPXLXLXPXLXLXX.o z 9 9 9 . uXLXLXLXLXLXLX*XZ.a.2 3 8 8 8 UXUX",
"UX] ' ' ] ' ( f.W.>XLXLXLXLXLXLXaXD  . . .| | | ~ ~ ~ ~ G G G G S G F F F F F F c 9 l 9 9 9 . uXLXLXLXLXLXLX*XZ.a.2 3 8 8 0 8 UX",
"] ] ] W ' ' ( f.T.,XLXLXLXLXLXLXpXp m m b m v v v v t d d r r r ; : : ; - - - - 4 c 9 9 8 0   uXLXLXLXLXLXLX*XZ.a.+ > 8 8 > > > ",
"] ] ' ' ' ' Z S.W.>XLXLXLXLXLXLXaXi _ R R R T Y Y C C A A V V n n n x x x l l l 9 9 9 8 > <   uXLXLXLXLXLXLX%XZ.a.2 > 0 > > , > ",
"W ' ' ' W W ( d.}.!.KXLXLXLXLXLXaXe R R T T Y Y C C B B V V j n n z g x z l l l 9 9 9 8 > <   tXLXLXLXLXLXLX|.A.h.+ > > > > = > ",
"' ' ' W _ ' Z ;.[.c.SXLXLXLXLXLXaXe R T T T A A C B V V n V n n j z x x l l l 9 9 8 8 > > 8   tXLXLXLXLXLXJXx.$X-.+ , > , > = > ",
"' W W W R R ( &.[.M.,XLXLXLXLXLXpXp T T Y C B C B B B m h h h g g g k 4 4 4 4 8 8 3 > = * =   tXLXLXLXLXLX=X%.#X/ O , , = = = = ",
"UX' W W R W R E (./.c.JXLXLXLXLXiX# t e e w w ; ; ; ; $ $ - # # # # @ @ @ o o o o X . . . .   o.LXLXLXLXKXx.V.$X0 % , > = , = UX",
"UXUXW W R R R N h.[.n.!.PXLXLXLXIXxXkXkXlXFXlXlXlXlXlXlXjXjXjXjXsXjXjXjXjXjXsXsXsXsXsXsXsXsXdXHXLXLXLXLX+X%.#X;.O > = = = = UXUX",
"UXUXUXR R R R T E 2X2Xc.-XLXLXLXLXLXLXLXLXLXLXLXLXLXLXLXLXLXLXLXLXLXLXLXLXLXLXLXLXLXLXLXLXLXLXLXLXLXLX%X$.oX@X, + , = = = UXUXUX",
"UXUXUXR R R R R N / [.;Xc.~.JXLXLXLXLXLXLXLXLXLXLXLXLXLXLXLXLXLXLXLXLXLXLXLXLXLXLXLXLXLXLXLXLXLXLXKX+X$.V.<X/ O < = = , = UXUXUX",
"UXUXUXUXR T T T R q =.[.;XN.M.vXKXPXPXLXLXLXLXLXLXLXLXLXLXLXLXLXLXLXLXLXLXLXLXLXLXLXLXLXLXLXLXKXMXC.%.|.<X*.O = > = = = * UXUXUX",
"UXUXUXR R R R T T T q *.].3XJ.N.J.-XvXmXmXmXmXmXmXmXmXmXmXnXmXnXnXnXnXnXnXnXAXAXnXAXAXAXAXMX%XC.$.C.@X#X/ O * , = = = * * UXUXUX",
"UXUXUXR T R T T T Y T q G j.].3X_.K.M.M.M.M.n.n.n.n.n.n.b.n.b.v.v.v.v.v.z.v.z.z.z.l.l.l.l.l.Z.G.@X@Xs.H O = , = = = * * * UXUXUX",
"UXUXR T T T T Y Y Y A Y M 6 ^ -.D.H.H.OXH.H.OXOXXXH.XXXXD.XXXXXXXXD.XX.X.X.XF.|.F.|.F.|.V.|. Xs.*.H O + < , = = = * * * * * UXUX",
"UXR R T T R T A Y Y C C Y C M q 6 M V n j n j j g x h g g j g g x 4 4 9 4 4 4 9 8 8 3 8 3 > 2 + O + > , = = = = * = * & & & & UX",
"R T T T T A T Y A Y C A A B A B B B M M f f f f f f f 6 6 7 6 4 7 4 3 4 7 4 3 3 3 3 2 3 % % = > , , , , = = = = * * * & & & & & ",
"R T T T T Y Y Y A A C A C B V A V V V n V n j j j j x x x x x l x l l l z 9 9 9 9 9 8 0 < 8 , > > > = = = = & = * * & & & & & & ",
"T T R T A Y T Y Y A A B B V V V V n n V n j n j x j x x z z l x l l l l 9 9 9 9 9 8 8 8 8 , , > > = = = = * = * * & & & & & & & ",
"R T T Y Y Y C C A A UXUXUXA V V V n n j j j j j UXUXUXx z z z l l z l 9 9 UXUXUX0 8 8 8 > > > > = = = UXUXUX* * & & & & & & & & ",
"T Y A Y Y C C C C UXUXUXUXUXUXn V n n j j j UXUXUXUXUXUXz z l z z l 9 9 UXUXUXUXUXUX, , , , > = > UXUXUXUXUXUX& & & & & & & & & ",
"UXT A T Y C A A UXUXUXUXUXUXUXn n n n j j j UXUXUXUXUXUXUXl l 9 9 9 9 UXUXUXUXUXUXUX, > > > > = = UXUXUXUXUXUXUX& & & & & & & UX",
"UXUXY Y C A B UXUXUXUXUXUXUXUXUXUXj j j UXUXUXUXUXUXUXUXUXUXl z 9 9 UXUXUXUXUXUXUXUXUXUX> = = UXUXUXUXUXUXUXUXUXUX& & & & & UXUX"
};
